<svg width="34" height="68" viewBox="0 0 34 68" fill="none" xmlns="http://www.w3.org/2000/svg">
<g filter="url(#filter0_d_50_999)">
<g clip-path="url(#clip0_50_999)">
<rect x="4" y="0.617004" width="26" height="59" rx="5" fill="white"/>
<g filter="url(#filter1_d_50_999)">
<path d="M15.5657 5.95024H21.8449L22.8171 4.65934C22.8171 4.65934 22.8755 4.70715 22.9924 4.80277C23.1199 4.8984 23.2739 5.02589 23.4546 5.18526C23.6458 5.33401 23.8424 5.49338 24.0442 5.66337C24.2461 5.83337 24.432 5.99274 24.602 6.14149C24.5595 6.31148 24.4108 6.39648 24.1558 6.39648H15.5657V5.95024ZM14.1632 5.95024V5.79087V5.08964L16.1713 5.95024H15.9004V9.83889C15.9004 10.572 15.8685 11.3582 15.8048 12.1976C15.7516 13.0369 15.6241 13.8922 15.4223 14.7634C15.2204 15.624 14.9017 16.4581 14.4661 17.2656C14.0304 18.073 13.4355 18.8061 12.6811 19.4649L12.5058 19.3533C13.0158 18.4077 13.3823 17.3984 13.6054 16.3253C13.8392 15.2416 13.9879 14.1472 14.0517 13.0422C14.1261 11.9373 14.1632 10.8695 14.1632 9.83889V5.95024ZM17.5419 10.5242H22.8489V10.9704H17.5419V10.5242ZM17.5419 12.7554H22.9127V13.2175H17.5419V12.7554ZM21.9087 8.29299H21.7652L22.5621 7.41645L24.2514 8.69142C24.2089 8.74454 24.1398 8.80298 24.0442 8.86672C23.9486 8.91985 23.8264 8.96235 23.6777 8.99422V13.4407C23.6777 13.4832 23.5927 13.5416 23.4227 13.616C23.2633 13.6797 23.0668 13.7435 22.833 13.8072C22.6099 13.8603 22.4027 13.8869 22.2115 13.8869H21.9087V8.29299ZM19.2153 12.7554H21.0321V17.3293C21.0321 17.733 20.979 18.0943 20.8727 18.413C20.7771 18.7318 20.5699 18.9868 20.2512 19.178C19.9325 19.3799 19.4437 19.5074 18.785 19.5605C18.7744 19.2736 18.7478 19.0186 18.7053 18.7955C18.6734 18.583 18.6044 18.4077 18.4981 18.2696C18.4131 18.1315 18.2803 18.0146 18.0997 17.919C17.9191 17.8127 17.6535 17.733 17.3028 17.6799V17.4568C17.3028 17.4568 17.3719 17.4621 17.51 17.4727C17.6482 17.4834 17.8128 17.494 18.0041 17.5046C18.1953 17.5152 18.3759 17.5259 18.5459 17.5365C18.7159 17.5471 18.8434 17.5524 18.9284 17.5524C19.0453 17.5524 19.1197 17.5312 19.1515 17.4887C19.194 17.4356 19.2153 17.3665 19.2153 17.2815V12.7554ZM21.574 14.6041C22.3177 14.8272 22.9074 15.0981 23.343 15.4169C23.7892 15.7356 24.1027 16.0597 24.2833 16.389C24.4745 16.7184 24.5595 17.0265 24.5383 17.3134C24.5277 17.5896 24.4427 17.818 24.2833 17.9987C24.1239 18.1793 23.922 18.2749 23.6777 18.2855C23.4439 18.3068 23.1889 18.2058 22.9127 17.9827C22.8596 17.6109 22.7533 17.2284 22.594 16.8353C22.4452 16.4315 22.2646 16.049 22.0521 15.6878C21.8396 15.3159 21.6271 14.9866 21.4146 14.6997L21.574 14.6041ZM10.2587 14.4606C10.3755 14.4606 10.4605 14.45 10.5137 14.4288C10.5668 14.3969 10.6358 14.296 10.7208 14.126C10.7952 14.0197 10.859 13.9135 10.9121 13.8072C10.9758 13.6903 11.0608 13.5203 11.1671 13.2972C11.2733 13.0741 11.4221 12.7447 11.6133 12.3091C11.8152 11.8735 12.0861 11.2785 12.4261 10.5242C12.7767 9.76983 13.223 8.79235 13.7648 7.59176L14.0198 7.65551C13.9029 8.01675 13.7701 8.43111 13.6214 8.8986C13.4833 9.35546 13.3398 9.82826 13.1911 10.317C13.0423 10.8057 12.8989 11.2732 12.7608 11.7195C12.6333 12.1657 12.5217 12.5588 12.4261 12.8988C12.3305 13.2388 12.2614 13.4885 12.2189 13.6478C12.1552 13.8922 12.1021 14.1419 12.0596 14.3969C12.0171 14.6519 11.9958 14.8856 11.9958 15.0981C12.0064 15.3744 12.0596 15.6453 12.1552 15.9109C12.2614 16.1659 12.3624 16.4581 12.458 16.7874C12.5642 17.1062 12.6067 17.5046 12.5855 17.9827C12.5749 18.3758 12.4527 18.6893 12.2189 18.923C11.9958 19.1568 11.6983 19.2736 11.3264 19.2736C11.1458 19.2736 10.9758 19.2099 10.8165 19.0824C10.6677 18.9549 10.5668 18.7424 10.5137 18.4449C10.6093 17.8818 10.6624 17.3559 10.673 16.8671C10.6943 16.3784 10.6783 15.9693 10.6252 15.64C10.5721 15.3106 10.4818 15.1034 10.3543 15.0184C10.248 14.9334 10.1259 14.875 9.98773 14.8431C9.86024 14.8006 9.71149 14.7741 9.5415 14.7634V14.4606C9.5415 14.4606 9.58931 14.4606 9.68493 14.4606C9.78055 14.4606 9.8868 14.4606 10.0037 14.4606C10.1205 14.4606 10.2055 14.4606 10.2587 14.4606ZM10.673 4.72309C11.3743 4.82934 11.9267 4.99402 12.3305 5.21714C12.7448 5.42963 13.0317 5.66338 13.1911 5.91837C13.3611 6.17336 13.4355 6.42304 13.4142 6.66741C13.4036 6.91178 13.3239 7.11365 13.1751 7.27302C13.0264 7.42176 12.8298 7.50676 12.5855 7.52801C12.3517 7.54926 12.1021 7.46426 11.8364 7.27302C11.7833 6.98615 11.6824 6.69397 11.5336 6.39648C11.3955 6.09899 11.2361 5.81743 11.0555 5.55182C10.8749 5.27557 10.6996 5.0312 10.5296 4.81871L10.673 4.72309ZM9.55743 8.30893C10.2268 8.41517 10.7527 8.56923 11.1352 8.7711C11.5283 8.97297 11.7992 9.2014 11.948 9.4564C12.1074 9.70076 12.1711 9.93982 12.1392 10.1736C12.118 10.3967 12.033 10.5826 11.8842 10.7314C11.7355 10.8801 11.5443 10.9651 11.3105 10.9864C11.0768 10.997 10.8324 10.9067 10.5774 10.7154C10.5349 10.3117 10.3968 9.89732 10.163 9.47233C9.93992 9.04735 9.69556 8.69673 9.42994 8.42049L9.55743 8.30893ZM17.0479 14.3491L19.0878 15.385C19.0453 15.4594 18.9816 15.5231 18.8966 15.5762C18.8222 15.6187 18.6894 15.624 18.4981 15.5922C18.2219 15.9428 17.8872 16.304 17.4941 16.6759C17.1116 17.0371 16.6813 17.3824 16.2032 17.7118C15.7357 18.0305 15.2363 18.3068 14.7051 18.5405L14.5617 18.3812C14.9335 18.0093 15.2788 17.5896 15.5976 17.1221C15.9269 16.6546 16.2138 16.1765 16.4582 15.6878C16.7132 15.1991 16.9097 14.7528 17.0479 14.3491ZM16.7132 8.29299V7.59176L18.4344 8.29299H22.7055V8.73923H18.3547V13.5522C18.3547 13.5947 18.2856 13.6585 18.1475 13.7435C18.02 13.8285 17.85 13.9081 17.6375 13.9825C17.425 14.0463 17.1966 14.0781 16.9522 14.0781H16.7132V8.29299ZM19.1197 6.28492L21.319 6.81084C21.2871 6.90647 21.2234 6.98615 21.1277 7.0499C21.0427 7.11365 20.9152 7.14021 20.7453 7.12958C20.554 7.34208 20.3362 7.58114 20.0918 7.84675C19.8475 8.11237 19.5925 8.35674 19.3269 8.57986H18.9125C18.955 8.27174 18.9975 7.89456 19.04 7.44833C19.0825 7.00209 19.109 6.61429 19.1197 6.28492ZM11.7089 23.9024L14.1473 24.8108C14.1048 24.949 13.9189 25.0446 13.5895 25.0977V35.1859C13.5789 35.2496 13.4408 35.3559 13.1751 35.5046C12.9202 35.6534 12.5164 35.7277 11.9639 35.7277H11.7089V23.9024ZM9.73274 35.409C10.2321 35.3559 10.9174 35.2656 11.7886 35.1381C12.6598 34.9999 13.6533 34.8406 14.7689 34.6599C15.8844 34.4687 17.0372 34.2668 18.2272 34.0543L18.275 34.2456C17.5419 34.6175 16.6282 35.0371 15.5338 35.5046C14.4395 35.9721 13.0689 36.514 11.4221 37.1302C11.3371 37.3427 11.199 37.4755 11.0077 37.5286L9.73274 35.409ZM12.6492 29.1139H21.3349L22.4346 27.7114C22.4346 27.7114 22.5036 27.7645 22.6418 27.8708C22.7799 27.977 22.9499 28.1098 23.1518 28.2692C23.3642 28.4286 23.5821 28.5986 23.8052 28.7792C24.0389 28.9598 24.2514 29.1351 24.4427 29.3051C24.4002 29.4751 24.2461 29.5601 23.9805 29.5601H12.6492V29.1139ZM21.1118 22.5797L22.9764 24.4124C22.8808 24.4868 22.7427 24.524 22.5621 24.524C22.3815 24.524 22.1637 24.4762 21.9087 24.3805C21.3031 24.4868 20.6178 24.5877 19.8528 24.6833C19.0878 24.779 18.2856 24.8693 17.4463 24.9543C16.6069 25.0393 15.757 25.1083 14.8964 25.1615C14.0357 25.2146 13.2017 25.2465 12.3942 25.2571L12.3464 25.034C13.1008 24.8958 13.887 24.7312 14.7051 24.5399C15.5232 24.3487 16.3254 24.1415 17.1116 23.9184C17.9085 23.6846 18.6522 23.4562 19.3428 23.2331C20.0334 23.01 20.6231 22.7921 21.1118 22.5797ZM17.016 24.3168H18.9125C18.8806 25.1986 18.8859 26.0805 18.9284 26.9623C18.9709 27.8336 19.0719 28.6782 19.2312 29.4963C19.3906 30.3144 19.6084 31.0794 19.8847 31.7913C20.1715 32.4925 20.5328 33.1247 20.9684 33.6878C21.404 34.2403 21.9299 34.6865 22.5461 35.0265C22.6843 35.1009 22.8011 35.1327 22.8968 35.1221C22.9924 35.1009 23.0774 35.0265 23.1518 34.899C23.2792 34.7078 23.428 34.4368 23.598 34.0862C23.768 33.725 23.9274 33.3797 24.0761 33.0503L24.2355 33.0822L23.9327 35.5684C24.2089 35.9296 24.3789 36.2324 24.4427 36.4768C24.517 36.7211 24.4692 36.9443 24.2992 37.1461C24.108 37.3799 23.8477 37.5021 23.5183 37.5127C23.1996 37.5339 22.8702 37.4808 22.5302 37.3533C22.1902 37.2258 21.8715 37.0718 21.574 36.8911C20.6178 36.2749 19.8368 35.5259 19.2312 34.644C18.6362 33.7515 18.1794 32.7581 17.8606 31.6638C17.5419 30.5694 17.3188 29.4007 17.1913 28.1576C17.0744 26.9145 17.016 25.6343 17.016 24.3168ZM9.49369 41.9184H15.6454L16.5538 40.755C16.5538 40.755 16.6494 40.8293 16.8407 40.9781C17.0319 41.1268 17.255 41.3074 17.51 41.5199C17.7756 41.7218 18.0094 41.9237 18.2113 42.1256C18.1688 42.2955 18.02 42.3805 17.765 42.3805H9.62118L9.49369 41.9184ZM9.44587 48.1976H15.757L16.6813 47.0182C16.6813 47.0182 16.7769 47.0926 16.9682 47.2413C17.1594 47.3901 17.3825 47.5707 17.6375 47.7832C17.8925 47.9957 18.1209 48.2029 18.3228 48.4048C18.2909 48.5747 18.1475 48.6597 17.8925 48.6597H9.57337L9.44587 48.1976ZM15.2629 41.9184H16.9044V45.8708C16.9044 46.232 16.8619 46.5454 16.7769 46.811C16.6919 47.0767 16.5166 47.2892 16.251 47.4485C15.9854 47.6079 15.5763 47.7141 15.0238 47.7673C15.0132 47.5335 14.9973 47.3317 14.976 47.1617C14.9548 46.981 14.9123 46.8323 14.8485 46.7154C14.7848 46.6198 14.6892 46.5348 14.5617 46.4604C14.4448 46.3754 14.2589 46.3117 14.0039 46.2692V46.0461C14.0039 46.0461 14.0729 46.0514 14.2111 46.062C14.3492 46.0726 14.4979 46.0833 14.6573 46.0939C14.8167 46.1045 14.9335 46.1098 15.0079 46.1098C15.1142 46.1098 15.1832 46.0886 15.2151 46.0461C15.247 45.9929 15.2629 45.9239 15.2629 45.8389V41.9184ZM15.2948 48.1976H16.9841V53.3931C16.9841 53.7543 16.931 54.073 16.8247 54.3493C16.7291 54.6255 16.5272 54.8486 16.2191 55.0186C15.911 55.1886 15.4435 55.3002 14.8167 55.3533C14.806 55.1089 14.7795 54.8965 14.737 54.7158C14.6945 54.5352 14.6201 54.3865 14.5139 54.2696C14.4076 54.1527 14.2589 54.0518 14.0676 53.9668C13.887 53.8712 13.6108 53.7968 13.2389 53.7437V53.5365C13.2389 53.5365 13.3133 53.5418 13.462 53.5524C13.6108 53.5631 13.7861 53.5737 13.9879 53.5843C14.2004 53.5949 14.4023 53.6055 14.5935 53.6162C14.7848 53.6268 14.9176 53.6321 14.992 53.6321C15.1088 53.6321 15.1885 53.6109 15.231 53.5684C15.2735 53.5152 15.2948 53.4462 15.2948 53.3612V48.1976ZM11.1511 43.4483H13.5258V43.8946H11.1511V43.4483ZM11.1511 45.8229H13.5258V46.2692H11.1511V45.8229ZM10.3384 43.4483V42.763L12.0436 43.4483H11.8524V46.827C11.8524 46.8907 11.7408 46.981 11.5177 47.0979C11.2946 47.2148 10.9865 47.2732 10.5933 47.2732H10.3384V43.4483ZM12.8245 43.4483H12.697L13.3823 42.7471L14.8007 43.7989C14.7264 43.9158 14.5723 43.9955 14.3386 44.038V46.5879C14.3386 46.6198 14.2642 46.6676 14.1154 46.7314C13.9773 46.7951 13.8073 46.8535 13.6054 46.9067C13.4142 46.9598 13.2389 46.9864 13.0795 46.9864H12.8245V43.4483ZM11.183 49.7275H13.5576V50.1738H11.183V49.7275ZM11.183 52.134H13.5576V52.5803H11.183V52.134ZM10.3065 49.7275V49.0422L12.0436 49.7275H11.8364V53.3293C11.8364 53.3931 11.7196 53.4887 11.4858 53.6162C11.2627 53.733 10.9599 53.7915 10.5774 53.7915H10.3065V49.7275ZM12.8405 49.7275H12.713L13.3983 49.0104L14.8485 50.0781C14.7635 50.1844 14.6042 50.2641 14.3704 50.3172V52.899C14.3704 52.9415 14.2961 52.9946 14.1473 53.0584C14.0092 53.1115 13.8392 53.1646 13.6373 53.2177C13.4461 53.2709 13.2708 53.2974 13.1114 53.2974H12.8405V49.7275ZM18.8328 43.9105H23.3749V44.3567H18.6734L18.8328 43.9105ZM22.4824 43.9105H22.2911L23.1677 43.034L24.6976 44.4842C24.6339 44.5586 24.5542 44.6064 24.4586 44.6277C24.363 44.6489 24.2355 44.6702 24.0761 44.6914C23.9061 44.9464 23.6936 45.2386 23.4386 45.568C23.1836 45.8973 22.9233 46.2214 22.6577 46.5401C22.3921 46.8482 22.1371 47.1245 21.8927 47.3688L21.7015 47.2732C21.8077 46.9545 21.9087 46.5932 22.0043 46.1895C22.1105 45.7751 22.2062 45.3661 22.2911 44.9623C22.3761 44.548 22.4399 44.1974 22.4824 43.9105ZM19.3109 43.9105H21.0162C20.9949 45.1005 20.9524 46.2426 20.8887 47.337C20.8249 48.4313 20.6656 49.4672 20.4106 50.4447C20.1556 51.4222 19.7465 52.3359 19.1834 53.1859C18.6309 54.0358 17.8447 54.8115 16.8247 55.5127L16.6176 55.2736C17.3188 54.498 17.8553 53.6746 18.2272 52.8034C18.5991 51.9322 18.8594 51.0184 19.0081 50.0622C19.1675 49.106 19.2578 48.1126 19.279 47.082C19.3003 46.0514 19.3109 44.9942 19.3109 43.9105ZM18.8806 40.5956L21.2552 41.2649C21.2127 41.3712 21.1437 41.4562 21.0481 41.5199C20.9524 41.5731 20.8143 41.5996 20.6337 41.5996C20.2725 42.7471 19.8156 43.7671 19.2631 44.6595C18.7106 45.552 18.0625 46.3011 17.3188 46.9067L17.1116 46.7792C17.3878 46.2586 17.6428 45.6636 17.8766 44.9942C18.1103 44.3249 18.3122 43.6183 18.4822 42.8746C18.6628 42.1202 18.7956 41.3606 18.8806 40.5956ZM21.0162 43.9105C21.0906 45.483 21.2393 46.8748 21.4624 48.086C21.6962 49.2972 22.068 50.3438 22.578 51.2256C23.088 52.1075 23.7839 52.8353 24.6658 53.409L24.6339 53.6002C24.2195 53.6959 23.8795 53.903 23.6139 54.2218C23.3589 54.5511 23.1889 54.9868 23.1039 55.5286C22.6365 55.0186 22.254 54.3705 21.9565 53.5843C21.659 52.7981 21.4252 51.9056 21.2552 50.9069C21.0959 49.8975 20.979 48.8032 20.9046 47.6238C20.8303 46.4445 20.7824 45.212 20.7612 43.9264L21.0162 43.9105Z" fill="#737373"/>
</g>
</g>
</g>
<defs>
<filter id="filter0_d_50_999" x="0" y="0.617004" width="34" height="67" filterUnits="userSpaceOnUse" color-interpolation-filters="sRGB">
<feFlood flood-opacity="0" result="BackgroundImageFix"/>
<feColorMatrix in="SourceAlpha" type="matrix" values="0 0 0 0 0 0 0 0 0 0 0 0 0 0 0 0 0 0 127 0" result="hardAlpha"/>
<feOffset dy="4"/>
<feGaussianBlur stdDeviation="2"/>
<feComposite in2="hardAlpha" operator="out"/>
<feColorMatrix type="matrix" values="0 0 0 0 0 0 0 0 0 0 0 0 0 0 0 0 0 0 0.25 0"/>
<feBlend mode="normal" in2="BackgroundImageFix" result="effect1_dropShadow_50_999"/>
<feBlend mode="normal" in="SourceGraphic" in2="effect1_dropShadow_50_999" result="shape"/>
</filter>
<filter id="filter1_d_50_999" x="5.43018" y="4.65933" width="23.2676" height="58.8693" filterUnits="userSpaceOnUse" color-interpolation-filters="sRGB">
<feFlood flood-opacity="0" result="BackgroundImageFix"/>
<feColorMatrix in="SourceAlpha" type="matrix" values="0 0 0 0 0 0 0 0 0 0 0 0 0 0 0 0 0 0 127 0" result="hardAlpha"/>
<feOffset dy="4"/>
<feGaussianBlur stdDeviation="2"/>
<feComposite in2="hardAlpha" operator="out"/>
<feColorMatrix type="matrix" values="0 0 0 0 0 0 0 0 0 0 0 0 0 0 0 0 0 0 0.25 0"/>
<feBlend mode="normal" in2="BackgroundImageFix" result="effect1_dropShadow_50_999"/>
<feBlend mode="normal" in="SourceGraphic" in2="effect1_dropShadow_50_999" result="shape"/>
</filter>
<clipPath id="clip0_50_999">
<rect x="4" y="0.617004" width="26" height="59" rx="5" fill="white"/>
</clipPath>
</defs>
</svg>
