<svg width="240" height="70" viewBox="0 0 240 70" fill="none" xmlns="http://www.w3.org/2000/svg">
<g filter="url(#filter0_d_2927_1008)">
<path d="M110.506 28.9315L111.343 30.063V30.3265C110.403 30.6675 109.442 30.9568 108.46 31.1945C107.489 31.4218 106.491 31.5872 105.468 31.6905C104.456 31.8042 103.417 31.861 102.353 31.861C100.441 31.861 98.7309 31.6233 97.2222 31.148C95.7238 30.6623 94.4528 29.9545 93.4091 29.0245C92.3757 28.0841 91.5904 26.9423 91.053 25.5989C90.5157 24.2452 90.247 22.7107 90.247 20.9953C90.247 18.8046 90.7637 16.8774 91.7971 15.2137C92.8304 13.55 94.3029 12.2583 96.2146 11.3386C98.1367 10.4086 100.41 9.94361 103.035 9.94361C103.83 9.94361 104.58 9.99011 105.282 10.0831C105.995 10.1658 106.796 10.3156 107.685 10.5326L106.274 10.8426L108.413 9.2461H108.925L110.149 17.1667L109.281 17.3682L105.778 11.8191L107.483 13.6327C106.688 12.9713 105.887 12.4857 105.081 12.1757C104.275 11.8656 103.386 11.7106 102.415 11.7106C101.33 11.7106 100.364 11.8708 99.5162 12.1912C98.6688 12.5115 97.9507 13.0023 97.3617 13.6637C96.7726 14.325 96.3231 15.1672 96.0131 16.1902C95.7135 17.2029 95.5636 18.4119 95.5636 19.8173C95.5636 22.0597 95.8891 23.9455 96.5401 25.4749C97.2015 26.9939 98.0953 28.1461 99.2217 28.9315C100.348 29.7065 101.614 30.094 103.019 30.094C103.567 30.094 104.089 30.0475 104.585 29.9545C105.091 29.8615 105.561 29.722 105.995 29.536C106.44 29.35 106.827 29.1226 107.158 28.854L105.437 30.9155V23.5839L102.942 22.6693V22.0183H112.552V22.6693L110.506 23.5374V28.9315ZM123.216 17.0427C124.436 17.0427 125.474 17.2959 126.332 17.8023C127.19 18.3086 127.861 19.0371 128.347 19.9878C128.833 20.9281 129.127 22.0648 129.23 23.3979H119.279L119.295 22.0958L127.138 21.7703L124.999 22.6073C124.958 21.6463 124.849 20.861 124.673 20.2513C124.508 19.6313 124.27 19.1766 123.96 18.8873C123.661 18.5876 123.278 18.4378 122.813 18.4378C122.328 18.4378 121.894 18.5824 121.511 18.8718C121.139 19.1611 120.845 19.6571 120.628 20.3598C120.421 21.0625 120.318 22.0235 120.318 23.2429C120.318 24.4622 120.514 25.4801 120.907 26.2964C121.3 27.1128 121.858 27.7276 122.581 28.1409C123.304 28.544 124.162 28.7455 125.154 28.7455C125.609 28.7455 126.037 28.7041 126.44 28.6215C126.854 28.5285 127.257 28.3838 127.649 28.1874C128.042 27.9808 128.44 27.7121 128.843 27.3814L129.354 28.0324C128.745 28.8488 128.114 29.5463 127.463 30.125C126.823 30.6933 126.136 31.1273 125.402 31.427C124.668 31.7163 123.878 31.861 123.03 31.861C121.625 31.861 120.395 31.5562 119.341 30.9465C118.298 30.3368 117.486 29.4946 116.908 28.42C116.329 27.3349 116.04 26.0949 116.04 24.6999C116.04 23.3152 116.314 22.0442 116.861 20.8868C117.419 19.7295 118.23 18.7994 119.295 18.0968C120.369 17.3941 121.677 17.0427 123.216 17.0427ZM139.691 20.3133V30.218L141.335 30.869V31.458H133.305V30.869L135.134 30.125V20.9333C134.917 20.6336 134.649 20.365 134.328 20.1273C134.018 19.8793 133.621 19.6313 133.135 19.3833V18.8563L138.637 17.0272H139.087L139.691 20.3133ZM142.823 30.869L144.45 30.218V22.3748C144.45 21.8892 144.367 21.4913 144.202 21.1813C144.037 20.861 143.784 20.6285 143.443 20.4838C143.112 20.3391 142.688 20.2668 142.172 20.2668C141.572 20.2668 141.019 20.3546 140.513 20.5303C140.007 20.6956 139.578 20.9126 139.226 21.1813L138.73 20.6233C139.412 19.869 140.022 19.2593 140.559 18.7943C141.107 18.3293 141.614 17.9728 142.079 17.7248C142.544 17.4768 143.003 17.3062 143.458 17.2132C143.913 17.1202 144.398 17.0737 144.915 17.0737C146.3 17.0737 147.328 17.4871 148 18.3138C148.671 19.1301 149.007 20.3805 149.007 22.0648V30.125L150.867 30.869V31.458H142.823V30.869ZM158.171 14.2372C157.407 14.2372 156.787 13.9892 156.311 13.4932C155.846 12.9972 155.614 12.3875 155.614 11.6641C155.614 10.9511 155.846 10.357 156.311 9.88161C156.787 9.39593 157.407 9.1531 158.171 9.1531C158.957 9.1531 159.582 9.39593 160.047 9.88161C160.512 10.357 160.744 10.9511 160.744 11.6641C160.744 12.3875 160.512 12.9972 160.047 13.4932C159.582 13.9892 158.957 14.2372 158.171 14.2372ZM155.986 20.7318C155.841 20.5458 155.665 20.3701 155.459 20.2048C155.262 20.0291 155.04 19.8535 154.792 19.6778C154.544 19.5021 154.275 19.3265 153.986 19.1508V18.5928L160.093 17.0272H160.682L160.543 20.2668V31.0705C160.543 31.7835 160.501 32.4035 160.419 32.9305C160.346 33.4679 160.191 33.9639 159.954 34.4186C159.726 34.8732 159.375 35.3331 158.9 35.7981C158.435 36.2631 157.81 36.7798 157.024 37.3481C156.249 37.9268 155.278 38.614 154.11 39.4097L153.49 38.6656C154.058 38.0146 154.508 37.4618 154.839 37.0071C155.18 36.5628 155.428 36.1494 155.583 35.7671C155.748 35.3847 155.857 34.9869 155.908 34.5736C155.96 34.1602 155.986 33.6642 155.986 33.0855V20.7318ZM170.934 14.2372C170.169 14.2372 169.549 13.9892 169.073 13.4932C168.608 12.9972 168.376 12.3875 168.376 11.6641C168.376 10.9511 168.608 10.357 169.073 9.88161C169.549 9.39593 170.169 9.1531 170.934 9.1531C171.719 9.1531 172.344 9.39593 172.809 9.88161C173.274 10.357 173.507 10.9511 173.507 11.6641C173.507 12.3875 173.274 12.9972 172.809 13.4932C172.344 13.9892 171.719 14.2372 170.934 14.2372ZM173.445 17.0272L173.305 20.2668V30.1405L175.119 30.869V31.458H166.903V30.869L168.748 30.125V20.7318C168.603 20.5458 168.428 20.3701 168.221 20.2048C168.025 20.0291 167.802 19.8535 167.554 19.6778C167.306 19.5021 167.038 19.3265 166.748 19.1508V18.5928L172.84 17.0272H173.445Z" fill="#EDB940"/>
<path d="M127.729 47.6999C127.729 45.8708 127.326 44.481 126.52 43.5303C125.714 42.5693 124.624 42.0888 123.25 42.0888C122.661 42.0888 122.092 42.1456 121.545 42.2593C121.007 42.3626 120.501 42.528 120.026 42.7553C119.55 42.9826 119.101 43.2771 118.677 43.6388L118.615 42.7243C119.215 42.2696 119.783 41.8924 120.32 41.5928C120.858 41.2828 121.364 41.0348 121.839 40.8488C122.315 40.6524 122.759 40.5129 123.172 40.4302C123.596 40.3476 123.989 40.3062 124.35 40.3062C125.673 40.3062 126.784 40.5801 127.683 41.1278C128.582 41.6754 129.264 42.4401 129.729 43.4218C130.204 44.4035 130.442 45.5402 130.442 46.8319C130.442 48.4749 130.101 49.8906 129.419 51.0789C128.747 52.257 127.838 53.1663 126.691 53.807C125.554 54.4477 124.288 54.768 122.893 54.768C122.366 54.768 121.844 54.7267 121.328 54.644C120.821 54.5613 120.305 54.4322 119.778 54.2565C119.251 54.0808 118.708 53.8483 118.15 53.559H119.638V60.9061L122.258 61.5881V62.1151H114.911V61.5881L117.236 60.9061V43.3288C117.101 43.2048 116.931 43.086 116.724 42.9723C116.518 42.8483 116.264 42.7191 115.965 42.5848C115.675 42.4505 115.34 42.311 114.957 42.1663V41.7943L119.034 40.2597H119.282L119.638 42.3213V50.5054C119.638 51.0944 119.793 51.6266 120.103 52.102C120.424 52.5773 120.868 52.9493 121.436 53.218C122.005 53.4763 122.666 53.6055 123.42 53.6055C124.33 53.6055 125.105 53.3678 125.745 52.8925C126.386 52.4171 126.877 51.7351 127.218 50.8464C127.559 49.9578 127.729 48.9089 127.729 47.6999ZM142.198 53.6985C143.024 53.6985 143.753 53.4867 144.383 53.063C145.014 52.6393 145.499 51.9935 145.84 51.1254C146.192 50.2574 146.367 49.1569 146.367 47.8239C146.367 46.4185 146.197 45.2405 145.856 44.2898C145.515 43.3288 145.024 42.6055 144.383 42.1198C143.753 41.6238 143.004 41.3758 142.136 41.3758C141.309 41.3758 140.581 41.5876 139.95 42.0113C139.32 42.435 138.829 43.0808 138.478 43.9488C138.137 44.8168 137.966 45.9174 137.966 47.2504C137.966 48.6454 138.137 49.8234 138.478 50.7844C138.819 51.7455 139.304 52.474 139.935 52.97C140.575 53.4557 141.33 53.6985 142.198 53.6985ZM142.12 54.768C140.798 54.768 139.614 54.4683 138.571 53.869C137.537 53.2593 136.726 52.4171 136.137 51.3425C135.558 50.2678 135.269 49.0381 135.269 47.6534C135.269 46.2274 135.574 44.9615 136.184 43.8558C136.793 42.7501 137.62 41.8821 138.664 41.2518C139.718 40.6214 140.901 40.3062 142.213 40.3062C143.557 40.3062 144.74 40.6111 145.763 41.2208C146.796 41.8201 147.607 42.652 148.196 43.7163C148.785 44.7807 149.08 46.0155 149.08 47.4209C149.08 48.8469 148.77 50.1128 148.15 51.2184C147.54 52.3241 146.708 53.1922 145.654 53.8225C144.611 54.4528 143.433 54.768 142.12 54.768ZM160.954 40.3062C161.977 40.3062 162.866 40.5284 163.62 40.9728C164.374 41.4171 164.974 42.0681 165.418 42.9258C165.862 43.7835 166.136 44.8323 166.24 46.0724H156.567L156.583 45.0648L164.705 44.7858L163.605 45.4213C163.532 44.5947 163.377 43.8816 163.14 43.2823C162.912 42.683 162.597 42.2231 162.194 41.9028C161.791 41.5721 161.285 41.4068 160.675 41.4068C159.921 41.4068 159.265 41.6186 158.707 42.0423C158.148 42.4556 157.714 43.0653 157.404 43.8713C157.094 44.6773 156.939 45.659 156.939 46.8164C156.939 48.0977 157.162 49.1879 157.606 50.0869C158.061 50.9859 158.696 51.668 159.513 52.133C160.329 52.5876 161.295 52.815 162.411 52.815C162.845 52.815 163.269 52.7581 163.682 52.6445C164.106 52.5308 164.514 52.3603 164.907 52.133C165.31 51.8953 165.687 51.606 166.038 51.2649L166.395 51.637C165.847 52.3603 165.289 52.9545 164.721 53.4195C164.163 53.8845 163.568 54.2255 162.938 54.4425C162.318 54.6595 161.641 54.768 160.908 54.768C159.678 54.768 158.577 54.4735 157.606 53.8845C156.635 53.2955 155.87 52.474 155.312 51.42C154.754 50.3659 154.475 49.1414 154.475 47.7464C154.475 46.3824 154.733 45.1372 155.25 44.0108C155.767 42.8845 156.511 41.9854 157.482 41.3138C158.453 40.6421 159.611 40.3062 160.954 40.3062ZM175.916 43.1428V53.249L178.164 53.9155V54.458H171.189V53.9155L173.514 53.249V43.3288C173.349 43.1738 173.101 43.0136 172.77 42.8483C172.45 42.6726 171.938 42.4453 171.235 42.1663V41.7943L175.296 40.2597H175.56L175.916 43.1428ZM184.488 44.2433V53.249L186.72 53.9155V54.458H179.838V53.9155L182.086 53.249V45.0493C182.086 44.4707 181.967 43.9901 181.729 43.6078C181.491 43.2255 181.156 42.9413 180.722 42.7553C180.288 42.559 179.771 42.4608 179.171 42.4608C178.458 42.4608 177.771 42.5848 177.11 42.8328C176.449 43.0808 175.968 43.3908 175.668 43.7628L175.188 43.2203C175.767 42.6726 176.294 42.2128 176.769 41.8408C177.255 41.4584 177.714 41.1588 178.148 40.9418C178.593 40.7144 179.037 40.5543 179.481 40.4612C179.926 40.3579 180.396 40.3062 180.892 40.3062C181.76 40.3062 182.458 40.4819 182.985 40.8333C183.512 41.1846 183.894 41.6599 184.132 42.2593C184.369 42.8586 184.488 43.52 184.488 44.2433ZM193.075 44.9408V53.249L195.416 53.9155V54.458H188.425V53.9155L190.673 53.249V45.0493C190.673 44.4707 190.554 43.9901 190.316 43.6078C190.079 43.2255 189.738 42.9413 189.293 42.7553C188.859 42.559 188.342 42.4608 187.743 42.4608C187.03 42.4608 186.343 42.5848 185.682 42.8328C185.02 43.0808 184.54 43.3908 184.24 43.7628L183.76 43.2203C184.338 42.6726 184.865 42.2128 185.341 41.8408C185.826 41.4584 186.291 41.1588 186.736 40.9418C187.18 40.7144 187.619 40.5543 188.053 40.4612C188.497 40.3579 188.973 40.3062 189.479 40.3062C190.75 40.3062 191.665 40.7041 192.223 41.4998C192.791 42.2851 193.075 43.4321 193.075 44.9408ZM205.364 40.3062C205.974 40.3062 206.527 40.3682 207.023 40.4923C207.519 40.6059 208.066 40.8126 208.666 41.1123L208.96 44.9098H208.34L206.697 41.0348L207.798 42.3678C207.374 41.9958 206.971 41.7219 206.589 41.5463C206.217 41.3706 205.788 41.2828 205.302 41.2828C204.496 41.2828 203.861 41.4636 203.396 41.8253C202.941 42.1869 202.714 42.6933 202.714 43.3443C202.714 43.83 202.838 44.2382 203.086 44.5688C203.344 44.8995 203.706 45.1992 204.171 45.4678C204.646 45.7262 205.209 45.9949 205.86 46.2739C206.356 46.4805 206.811 46.713 207.224 46.9714C207.648 47.2297 208.015 47.5242 208.325 47.8549C208.635 48.1856 208.877 48.5731 209.053 49.0174C209.229 49.4617 209.317 49.9784 209.317 50.5674C209.317 51.4458 209.089 52.2001 208.635 52.8305C208.19 53.4608 207.586 53.9413 206.821 54.272C206.067 54.6027 205.209 54.768 204.248 54.768C203.607 54.768 203.034 54.7163 202.528 54.613C202.021 54.5097 201.52 54.3443 201.024 54.117L200.28 50.1024H200.962L203.163 54.2565L201.535 53.1405C201.897 53.3265 202.212 53.4712 202.481 53.5745C202.76 53.6778 203.018 53.7502 203.256 53.7915C203.494 53.8225 203.742 53.838 204 53.838C204.951 53.838 205.726 53.6262 206.325 53.2025C206.935 52.7788 207.24 52.1485 207.24 51.3114C207.24 50.8878 207.147 50.5261 206.961 50.2264C206.785 49.9268 206.532 49.6633 206.201 49.4359C205.881 49.1982 205.509 48.9812 205.085 48.7849C204.672 48.5782 204.233 48.3716 203.768 48.1649C203.148 47.8756 202.61 47.5552 202.156 47.2039C201.711 46.8525 201.365 46.4237 201.117 45.9174C200.879 45.411 200.76 44.8013 200.76 44.0883C200.76 43.2823 200.962 42.6003 201.365 42.0423C201.778 41.4843 202.331 41.0554 203.024 40.7558C203.726 40.4561 204.506 40.3062 205.364 40.3062Z" fill="white"/>
</g>
<g filter="url(#filter1_d_2927_1008)">
<g clip-path="url(#clip0_2927_1008)">
<rect x="58.5" y="9.11426" width="23.4" height="53.1" rx="4.5" fill="white"/>
<g filter="url(#filter2_d_2927_1008)">
<path d="M68.9091 13.4137H74.5604L75.4354 12.2519C75.4354 12.2519 75.488 12.295 75.5931 12.381C75.7079 12.4671 75.8465 12.5818 76.0091 12.7253C76.1812 12.8591 76.3581 13.0026 76.5398 13.1556C76.7215 13.3086 76.8888 13.452 77.0418 13.5859C77.0036 13.7389 76.8697 13.8154 76.6402 13.8154H68.9091V13.4137ZM67.6469 13.4137V13.2703V12.6392L69.4542 13.4137H69.2103V16.9135C69.2103 17.5733 69.1817 18.2809 69.1243 19.0363C69.0765 19.7918 68.9617 20.5615 68.78 21.3456C68.5984 22.1202 68.3115 22.8708 67.9194 23.5975C67.5274 24.3243 66.9919 24.9841 66.313 25.5769L66.1552 25.4765C66.6142 24.6255 66.9441 23.7171 67.1449 22.7513C67.3553 21.7759 67.4891 20.791 67.5465 19.7965C67.6134 18.8021 67.6469 17.8411 67.6469 16.9135V13.4137ZM70.6877 17.5303H75.464V17.9319H70.6877V17.5303ZM70.6877 19.5384H75.5214V19.9543H70.6877V19.5384ZM74.6178 15.5222H74.4887L75.2059 14.7333L76.7263 15.8808C76.688 15.9286 76.6259 15.9812 76.5398 16.0386C76.4537 16.0864 76.3438 16.1246 76.2099 16.1533V20.1551C76.2099 20.1934 76.1334 20.246 75.9804 20.3129C75.837 20.3703 75.6601 20.4276 75.4497 20.485C75.2489 20.5328 75.0624 20.5567 74.8903 20.5567H74.6178V15.5222ZM72.1938 19.5384H73.8289V23.6549C73.8289 24.0183 73.7811 24.3434 73.6855 24.6303C73.5994 24.9171 73.4129 25.1466 73.1261 25.3187C72.8392 25.5004 72.3993 25.6152 71.8065 25.663C71.7969 25.4048 71.773 25.1753 71.7348 24.9745C71.7061 24.7832 71.6439 24.6255 71.5483 24.5012C71.4718 24.3769 71.3523 24.2717 71.1897 24.1856C71.0272 24.09 70.7881 24.0183 70.4726 23.9705V23.7696C70.4726 23.7696 70.5347 23.7744 70.659 23.784C70.7833 23.7936 70.9315 23.8031 71.1037 23.8127C71.2758 23.8222 71.4383 23.8318 71.5913 23.8414C71.7443 23.8509 71.8591 23.8557 71.9356 23.8557C72.0408 23.8557 72.1077 23.8366 72.1364 23.7983C72.1746 23.7505 72.1938 23.6884 72.1938 23.6119V19.5384ZM74.3166 21.2022C74.9859 21.403 75.5166 21.6468 75.9087 21.9337C76.3103 22.2206 76.5924 22.5122 76.7549 22.8086C76.9271 23.1051 77.0036 23.3824 76.9844 23.6406C76.9749 23.8892 76.8984 24.0948 76.7549 24.2573C76.6115 24.4199 76.4298 24.5059 76.2099 24.5155C75.9995 24.5346 75.77 24.4438 75.5214 24.243C75.4736 23.9083 75.378 23.5641 75.2346 23.2103C75.1007 22.8469 74.9381 22.5027 74.7469 22.1775C74.5556 21.8429 74.3644 21.5464 74.1731 21.2882L74.3166 21.2022ZM64.1328 21.0731C64.238 21.0731 64.3145 21.0635 64.3623 21.0444C64.4101 21.0157 64.4723 20.9249 64.5487 20.7719C64.6157 20.6763 64.6731 20.5806 64.7209 20.485C64.7782 20.3798 64.8547 20.2268 64.9504 20.026C65.046 19.8252 65.1799 19.5288 65.352 19.1367C65.5337 18.7447 65.7775 18.2092 66.0835 17.5303C66.399 16.8514 66.8007 15.9716 67.2883 14.8911L67.5178 14.9485C67.4126 15.2736 67.2931 15.6465 67.1592 16.0673C67.0349 16.4784 66.9058 16.904 66.772 17.3438C66.6381 17.7837 66.509 18.2044 66.3847 18.606C66.27 19.0077 66.1695 19.3615 66.0835 19.6674C65.9974 19.9734 65.9353 20.1982 65.897 20.3416C65.8397 20.5615 65.7918 20.7862 65.7536 21.0157C65.7153 21.2452 65.6962 21.4556 65.6962 21.6468C65.7058 21.8955 65.7536 22.1393 65.8397 22.3783C65.9353 22.6078 66.0261 22.8708 66.1122 23.1672C66.2078 23.4541 66.246 23.8127 66.2269 24.243C66.2174 24.5968 66.1074 24.8789 65.897 25.0892C65.6962 25.2996 65.4285 25.4048 65.0938 25.4048C64.9312 25.4048 64.7782 25.3474 64.6348 25.2327C64.5009 25.1179 64.4101 24.9267 64.3623 24.6589C64.4483 24.1521 64.4962 23.6788 64.5057 23.2389C64.5248 22.7991 64.5105 22.4309 64.4627 22.1345C64.4149 21.8381 64.3336 21.6516 64.2189 21.5751C64.1232 21.4986 64.0133 21.446 63.889 21.4173C63.7742 21.3791 63.6403 21.3552 63.4873 21.3456V21.0731C63.4873 21.0731 63.5304 21.0731 63.6164 21.0731C63.7025 21.0731 63.7981 21.0731 63.9033 21.0731C64.0085 21.0731 64.085 21.0731 64.1328 21.0731ZM64.5057 12.3093C65.1368 12.4049 65.6341 12.5531 65.9974 12.754C66.3704 12.9452 66.6285 13.1556 66.772 13.3851C66.925 13.6146 66.9919 13.8393 66.9728 14.0592C66.9632 14.2791 66.8915 14.4608 66.7576 14.6042C66.6238 14.7381 66.4469 14.8146 66.2269 14.8337C66.0166 14.8529 65.7918 14.7764 65.5528 14.6042C65.505 14.3461 65.4141 14.0831 65.2803 13.8154C65.156 13.5476 65.0125 13.2942 64.85 13.0552C64.6874 12.8065 64.5296 12.5866 64.3766 12.3954L64.5057 12.3093ZM63.5017 15.5366C64.1041 15.6322 64.5774 15.7708 64.9217 15.9525C65.2755 16.1342 65.5193 16.3398 65.6532 16.5693C65.7966 16.7892 65.854 17.0044 65.8253 17.2147C65.8062 17.4155 65.7297 17.5829 65.5958 17.7168C65.4619 17.8506 65.2898 17.9271 65.0795 17.9462C64.8691 17.9558 64.6492 17.8745 64.4197 17.7024C64.3814 17.339 64.2571 16.9661 64.0467 16.5836C63.8459 16.2011 63.626 15.8856 63.3869 15.637L63.5017 15.5366ZM70.2431 20.9727L72.079 21.905C72.0408 21.9719 71.9834 22.0293 71.9069 22.0771C71.84 22.1154 71.7204 22.1202 71.5483 22.0915C71.2997 22.407 70.9985 22.7321 70.6447 23.0668C70.3004 23.3919 69.9132 23.7027 69.4829 23.9991C69.0621 24.286 68.6127 24.5346 68.1346 24.745L68.0055 24.6016C68.3402 24.2669 68.651 23.8892 68.9378 23.4684C69.2342 23.0477 69.4924 22.6174 69.7124 22.1775C69.9419 21.7377 70.1188 21.3361 70.2431 20.9727ZM69.9419 15.5222V14.8911L71.4909 15.5222H75.335V15.9238H71.4192V20.2555C71.4192 20.2938 71.3571 20.3511 71.2328 20.4276C71.118 20.5041 70.965 20.5759 70.7738 20.6428C70.5825 20.7002 70.3769 20.7289 70.157 20.7289H69.9419V15.5222ZM72.1077 13.715L74.0871 14.1883C74.0584 14.2743 74.001 14.3461 73.915 14.4034C73.8385 14.4608 73.7237 14.4847 73.5707 14.4752C73.3986 14.6664 73.2026 14.8815 72.9826 15.1206C72.7627 15.3597 72.5332 15.5796 72.2942 15.7804H71.9212C71.9595 15.5031 71.9977 15.1636 72.036 14.762C72.0742 14.3604 72.0981 14.0114 72.1077 13.715ZM65.438 29.3707L67.6326 30.1883C67.5943 30.3126 67.427 30.3987 67.1306 30.4465V39.5258C67.121 39.5832 66.9967 39.6788 66.7576 39.8127C66.5281 39.9466 66.1648 40.0135 65.6675 40.0135H65.438V29.3707ZM63.6595 39.7266C64.1089 39.6788 64.7257 39.5975 65.5098 39.4828C66.2939 39.3585 67.1879 39.215 68.192 39.0525C69.196 38.8804 70.2335 38.6987 71.3045 38.5074L71.3475 38.6796C70.6877 39.0142 69.8654 39.3919 68.8804 39.8127C67.8955 40.2334 66.662 40.7211 65.1799 41.2757C65.1034 41.4669 64.9791 41.5865 64.8069 41.6343L63.6595 39.7266ZM66.2843 34.061H74.1014L75.0911 32.7988C75.0911 32.7988 75.1533 32.8466 75.2776 32.9422C75.4019 33.0378 75.5549 33.1574 75.7366 33.3008C75.9278 33.4442 76.1238 33.5972 76.3246 33.7598C76.535 33.9223 76.7263 34.0801 76.8984 34.2331C76.8601 34.3861 76.7215 34.4626 76.4824 34.4626H66.2843V34.061ZM73.9006 28.1802L75.5788 29.8297C75.4927 29.8966 75.3684 29.9301 75.2059 29.9301C75.0433 29.9301 74.8473 29.8871 74.6178 29.801C74.0727 29.8966 73.456 29.9875 72.7675 30.0735C72.079 30.1596 71.3571 30.2409 70.6016 30.3174C69.8462 30.3939 69.0813 30.456 68.3067 30.5038C67.5322 30.5517 66.7815 30.5803 66.0548 30.5899L66.0118 30.3891C66.6907 30.2648 67.3983 30.1166 68.1346 29.9444C68.8709 29.7723 69.5928 29.5859 70.3004 29.3851C71.0176 29.1747 71.687 28.9691 72.3085 28.7683C72.9301 28.5675 73.4608 28.3715 73.9006 28.1802ZM70.2144 29.7436H71.9212C71.8925 30.5373 71.8973 31.331 71.9356 32.1246C71.9738 32.9087 72.0647 33.6689 72.2081 34.4052C72.3515 35.1415 72.5476 35.83 72.7962 36.4707C73.0544 37.1018 73.3795 37.6707 73.7715 38.1775C74.1636 38.6748 74.6369 39.0764 75.1915 39.3824C75.3158 39.4493 75.421 39.478 75.5071 39.4684C75.5931 39.4493 75.6696 39.3824 75.7366 39.2676C75.8513 39.0955 75.9852 38.8517 76.1382 38.5361C76.2912 38.211 76.4346 37.9002 76.5685 37.6038L76.7119 37.6325L76.4394 39.8701C76.688 40.1952 76.841 40.4677 76.8984 40.6876C76.9653 40.9076 76.9223 41.1084 76.7693 41.29C76.5972 41.5004 76.3629 41.6104 76.0665 41.6199C75.7796 41.6391 75.4832 41.5913 75.1772 41.4765C74.8712 41.3618 74.5843 41.2231 74.3166 41.0606C73.456 40.5059 72.7532 39.8318 72.2081 39.0381C71.6726 38.2349 71.2614 37.3408 70.9746 36.3559C70.6877 35.371 70.4869 34.3192 70.3722 33.2004C70.267 32.0816 70.2144 30.9294 70.2144 29.7436ZM63.4443 45.3851H68.9808L69.7984 44.338C69.7984 44.338 69.8845 44.4049 70.0566 44.5388C70.2287 44.6727 70.4295 44.8352 70.659 45.0265C70.8981 45.2082 71.1084 45.3898 71.2901 45.5715C71.2519 45.7245 71.118 45.801 70.8885 45.801H63.5591L63.4443 45.3851ZM63.4013 51.0363H69.0813L69.9132 49.9749C69.9132 49.9749 69.9992 50.0419 70.1713 50.1757C70.3435 50.3096 70.5443 50.4722 70.7738 50.6634C71.0033 50.8547 71.2088 51.0411 71.3905 51.2228C71.3618 51.3758 71.2328 51.4523 71.0033 51.4523H63.516L63.4013 51.0363ZM68.6366 45.3851H70.114V48.9422C70.114 49.2673 70.0757 49.5494 69.9992 49.7885C69.9227 50.0275 69.765 50.2188 69.5259 50.3622C69.2868 50.5056 68.9187 50.6013 68.4215 50.6491C68.4119 50.4387 68.3976 50.257 68.3784 50.104C68.3593 49.9415 68.3211 49.8076 68.2637 49.7024C68.2063 49.6163 68.1202 49.5399 68.0055 49.4729C67.9003 49.3964 67.733 49.339 67.5035 49.3008V49.1C67.5035 49.1 67.5656 49.1048 67.6899 49.1143C67.8143 49.1239 67.9481 49.1335 68.0916 49.143C68.235 49.1526 68.3402 49.1574 68.4071 49.1574C68.5027 49.1574 68.5649 49.1382 68.5936 49.1C68.6223 49.0522 68.6366 48.99 68.6366 48.9135V45.3851ZM68.6653 51.0363H70.1857V55.7123C70.1857 56.0374 70.1379 56.3243 70.0423 56.5729C69.9562 56.8215 69.7745 57.0223 69.4972 57.1753C69.2199 57.3283 68.7992 57.4287 68.235 57.4765C68.2254 57.2566 68.2015 57.0653 68.1633 56.9028C68.125 56.7402 68.0581 56.6063 67.9625 56.5012C67.8668 56.396 67.733 56.3051 67.5609 56.2286C67.3983 56.1426 67.1497 56.0756 66.815 56.0278V55.8414C66.815 55.8414 66.8819 55.8461 67.0158 55.8557C67.1497 55.8653 67.3075 55.8748 67.4891 55.8844C67.6804 55.894 67.8621 55.9035 68.0342 55.9131C68.2063 55.9226 68.3258 55.9274 68.3928 55.9274C68.498 55.9274 68.5697 55.9083 68.6079 55.8701C68.6462 55.8222 68.6653 55.7601 68.6653 55.6836V51.0363ZM64.936 46.762H67.0732V47.1636H64.936V46.762ZM64.936 48.8992H67.0732V49.3008H64.936V48.8992ZM64.2045 46.762V46.1453L65.7392 46.762H65.5671V49.8028C65.5671 49.8602 65.4667 49.9415 65.2659 50.0466C65.0651 50.1518 64.7878 50.2044 64.434 50.2044H64.2045V46.762ZM66.4421 46.762H66.3273L66.9441 46.1309L68.2206 47.0776C68.1537 47.1828 68.0151 47.2545 67.8047 47.2927V49.5877C67.8047 49.6163 67.7378 49.6594 67.6039 49.7168C67.4796 49.7741 67.3266 49.8267 67.1449 49.8745C66.9728 49.9223 66.815 49.9462 66.6716 49.9462H66.4421V46.762ZM64.9647 52.4133H67.1019V52.8149H64.9647V52.4133ZM64.9647 54.5792H67.1019V54.9808H64.9647V54.5792ZM64.1758 52.4133V51.7965L65.7392 52.4133H65.5528V55.6549C65.5528 55.7123 65.4476 55.7983 65.2372 55.9131C65.0364 56.0183 64.7639 56.0709 64.4197 56.0709H64.1758V52.4133ZM66.4564 52.4133H66.3417L66.9584 51.7679L68.2637 52.7289C68.1872 52.8245 68.0437 52.8962 67.8334 52.944V55.2676C67.8334 55.3059 67.7664 55.3537 67.6326 55.4111C67.5083 55.4589 67.3553 55.5067 67.1736 55.5545C67.0015 55.6023 66.8437 55.6262 66.7003 55.6262H66.4564V52.4133ZM71.8495 47.178H75.9374V47.5796H71.7061L71.8495 47.178ZM75.1341 47.178H74.962L75.7509 46.3891L77.1279 47.6943C77.0705 47.7613 76.9988 47.8043 76.9127 47.8234C76.8267 47.8426 76.7119 47.8617 76.5685 47.8808C76.4155 48.1103 76.2242 48.3733 75.9947 48.6697C75.7653 48.9661 75.531 49.2578 75.2919 49.5446C75.0529 49.8219 74.8234 50.0706 74.6034 50.2905L74.4313 50.2044C74.5269 49.9176 74.6178 49.5924 74.7038 49.2291C74.7995 48.8562 74.8855 48.488 74.962 48.1246C75.0385 47.7517 75.0959 47.4362 75.1341 47.178ZM72.2798 47.178H73.8146C73.7954 48.2489 73.7572 49.2769 73.6998 50.2618C73.6424 51.2467 73.499 52.179 73.2695 53.0588C73.04 53.9385 72.6719 54.7608 72.1651 55.5258C71.6678 56.2908 70.9602 56.9888 70.0423 57.6199L69.8558 57.4048C70.4869 56.7067 70.9698 55.9657 71.3045 55.1816C71.6391 54.3975 71.8734 53.5751 72.0073 52.7145C72.1507 51.8539 72.232 50.9598 72.2511 50.0323C72.2703 49.1048 72.2798 48.1533 72.2798 47.178ZM71.8925 44.1946L74.0297 44.797C73.9915 44.8926 73.9293 44.9691 73.8432 45.0265C73.7572 45.0743 73.6329 45.0982 73.4703 45.0982C73.1452 46.1309 72.734 47.0489 72.2368 47.8521C71.7396 48.6553 71.1563 49.3295 70.4869 49.8745L70.3004 49.7598C70.5491 49.2912 70.7785 48.7557 70.9889 48.1533C71.1993 47.5509 71.381 46.915 71.534 46.2457C71.6965 45.5667 71.8161 44.883 71.8925 44.1946ZM73.8146 47.178C73.8815 48.5932 74.0154 49.8458 74.2162 50.9359C74.4265 52.026 74.7612 52.9679 75.2202 53.7616C75.6792 54.5552 76.3055 55.2103 77.0992 55.7266L77.0705 55.8987C76.6976 55.9848 76.3916 56.1713 76.1525 56.4581C75.923 56.7546 75.77 57.1466 75.6935 57.6343C75.2728 57.1753 74.9286 56.592 74.6608 55.8844C74.3931 55.1768 74.1827 54.3736 74.0297 53.4747C73.8863 52.5663 73.7811 51.5814 73.7142 50.52C73.6472 49.4586 73.6042 48.3494 73.5851 47.1923L73.8146 47.178Z" fill="#737373"/>
</g>
</g>
</g>
<defs>
<filter id="filter0_d_2927_1008" x="86.575" y="9.15332" width="126.414" height="60.3059" filterUnits="userSpaceOnUse" color-interpolation-filters="sRGB">
<feFlood flood-opacity="0" result="BackgroundImageFix"/>
<feColorMatrix in="SourceAlpha" type="matrix" values="0 0 0 0 0 0 0 0 0 0 0 0 0 0 0 0 0 0 127 0" result="hardAlpha"/>
<feOffset dy="3.672"/>
<feGaussianBlur stdDeviation="1.836"/>
<feComposite in2="hardAlpha" operator="out"/>
<feColorMatrix type="matrix" values="0 0 0 0 0 0 0 0 0 0 0 0 0 0 0 0 0 0 0.25 0"/>
<feBlend mode="normal" in2="BackgroundImageFix" result="effect1_dropShadow_2927_1008"/>
<feBlend mode="normal" in="SourceGraphic" in2="effect1_dropShadow_2927_1008" result="shape"/>
</filter>
<filter id="filter1_d_2927_1008" x="54.9" y="9.11426" width="30.6" height="60.2996" filterUnits="userSpaceOnUse" color-interpolation-filters="sRGB">
<feFlood flood-opacity="0" result="BackgroundImageFix"/>
<feColorMatrix in="SourceAlpha" type="matrix" values="0 0 0 0 0 0 0 0 0 0 0 0 0 0 0 0 0 0 127 0" result="hardAlpha"/>
<feOffset dy="3.6"/>
<feGaussianBlur stdDeviation="1.8"/>
<feComposite in2="hardAlpha" operator="out"/>
<feColorMatrix type="matrix" values="0 0 0 0 0 0 0 0 0 0 0 0 0 0 0 0 0 0 0.25 0"/>
<feBlend mode="normal" in2="BackgroundImageFix" result="effect1_dropShadow_2927_1008"/>
<feBlend mode="normal" in="SourceGraphic" in2="effect1_dropShadow_2927_1008" result="shape"/>
</filter>
<filter id="filter2_d_2927_1008" x="59.7869" y="12.252" width="20.9409" height="52.5828" filterUnits="userSpaceOnUse" color-interpolation-filters="sRGB">
<feFlood flood-opacity="0" result="BackgroundImageFix"/>
<feColorMatrix in="SourceAlpha" type="matrix" values="0 0 0 0 0 0 0 0 0 0 0 0 0 0 0 0 0 0 127 0" result="hardAlpha"/>
<feOffset dy="3.6"/>
<feGaussianBlur stdDeviation="1.8"/>
<feComposite in2="hardAlpha" operator="out"/>
<feColorMatrix type="matrix" values="0 0 0 0 0 0 0 0 0 0 0 0 0 0 0 0 0 0 0.25 0"/>
<feBlend mode="normal" in2="BackgroundImageFix" result="effect1_dropShadow_2927_1008"/>
<feBlend mode="normal" in="SourceGraphic" in2="effect1_dropShadow_2927_1008" result="shape"/>
</filter>
<clipPath id="clip0_2927_1008">
<rect x="58.5" y="9.11426" width="23.4" height="53.1" rx="4.5" fill="white"/>
</clipPath>
</defs>
</svg>
