<svg width="240" height="90" viewBox="0 0 240 90" fill="none" xmlns="http://www.w3.org/2000/svg">
<g filter="url(#filter0_d_2108_226)">
<path d="M107.427 36.9154L108.424 38.0805V38.3675C107.366 38.7502 106.296 39.0711 105.216 39.33C104.146 39.5776 103.054 39.7577 101.94 39.8703C100.837 39.9941 99.7111 40.056 98.5629 40.056C96.4692 40.056 94.6006 39.7971 92.9572 39.2793C91.3137 38.7502 89.9235 37.9735 88.7866 36.9492C87.6497 35.9249 86.7829 34.6754 86.1863 33.2008C85.601 31.7262 85.3083 30.0433 85.3083 28.1522C85.3083 25.7658 85.8711 23.6665 86.9968 21.8541C88.1337 20.0418 89.7434 18.6291 91.8259 17.6161C93.9196 16.603 96.4017 16.0964 99.2721 16.0964C100.15 16.0964 100.977 16.1471 101.754 16.2484C102.531 16.3497 103.403 16.5185 104.371 16.7549L102.818 17.0926L105.165 15.3535H105.688L107.056 24.0154L106.144 24.2349L102.278 18.1395L104.169 20.1488C103.279 19.3946 102.396 18.8486 101.518 18.5109C100.64 18.162 99.6717 17.9875 98.6136 17.9875C97.4541 17.9875 96.4129 18.162 95.4899 18.5109C94.5668 18.8599 93.7845 19.3946 93.1429 20.115C92.5013 20.8354 92.0116 21.7585 91.6739 22.8841C91.3362 24.0098 91.1674 25.3437 91.1674 26.8858C91.1674 29.3398 91.5276 31.4053 92.248 33.0826C92.9684 34.7598 93.9421 36.0318 95.1691 36.8985C96.396 37.754 97.7693 38.1818 99.289 38.1818C99.8631 38.1818 100.415 38.1368 100.944 38.0467C101.484 37.9454 101.985 37.7991 102.446 37.6077C102.919 37.4051 103.336 37.1574 103.696 36.8648L101.839 39.0429V30.9888L99.1032 30.0095V29.3004H109.639V30.0095L107.427 30.9213V36.9154ZM121.356 23.779C122.696 23.779 123.833 24.0548 124.767 24.6064C125.701 25.1579 126.433 25.9515 126.962 26.9871C127.502 28.0115 127.829 29.2497 127.941 30.7018H117.067V29.3004L125.645 28.9796L123.298 29.8576C123.242 28.7994 123.123 27.9327 122.943 27.2573C122.763 26.5819 122.504 26.081 122.167 25.7545C121.84 25.4281 121.424 25.2649 120.917 25.2649C120.377 25.2649 119.904 25.4281 119.499 25.7545C119.094 26.0697 118.773 26.6157 118.536 27.3924C118.311 28.1578 118.199 29.2103 118.199 30.5498C118.199 31.9006 118.407 33.0263 118.823 33.9268C119.251 34.8273 119.859 35.5027 120.647 35.953C121.446 36.4033 122.386 36.6284 123.467 36.6284C123.973 36.6284 124.452 36.5834 124.902 36.4933C125.352 36.392 125.791 36.2288 126.219 36.0036C126.658 35.7785 127.103 35.4802 127.553 35.1088L128.076 35.7841C127.412 36.7072 126.72 37.4895 125.999 38.1311C125.29 38.7615 124.536 39.2399 123.737 39.5663C122.938 39.8928 122.071 40.056 121.137 40.056C119.606 40.056 118.261 39.7239 117.101 39.0598C115.953 38.3957 115.058 37.4726 114.416 36.2907C113.786 35.0975 113.471 33.7298 113.471 32.1877C113.471 30.668 113.775 29.2722 114.383 28.0002C114.991 26.7282 115.88 25.7095 117.051 24.9441C118.232 24.1674 119.668 23.779 121.356 23.779ZM139.402 27.3755V38.2831L141.158 38.9754V39.617H132.378V38.9754L134.37 38.1987V28.034C134.122 27.7188 133.824 27.4261 133.475 27.156C133.138 26.8858 132.71 26.61 132.192 26.3286V25.7545L138.287 23.7621H138.777L139.402 27.3755ZM142.813 38.9754L144.569 38.2831V29.6212C144.569 29.0809 144.479 28.6419 144.298 28.3042C144.118 27.9665 143.843 27.7188 143.471 27.5612C143.111 27.3924 142.649 27.308 142.087 27.308C141.445 27.308 140.848 27.4036 140.297 27.595C139.745 27.7751 139.267 28.0115 138.862 28.3042L138.355 27.7132C139.12 26.8802 139.796 26.2104 140.381 25.7039C140.978 25.1861 141.529 24.7921 142.036 24.522C142.542 24.2518 143.043 24.0661 143.539 23.9648C144.034 23.8634 144.563 23.8128 145.126 23.8128C146.634 23.8128 147.754 24.2631 148.486 25.1636C149.229 26.0528 149.6 27.4093 149.6 29.2328V38.1987L151.61 38.9754V39.617H142.813V38.9754ZM159.63 20.8242C158.786 20.8242 158.105 20.554 157.587 20.0137C157.07 19.4621 156.811 18.7924 156.811 18.0044C156.811 17.2277 157.07 16.5804 157.587 16.0626C158.105 15.5336 158.786 15.2691 159.63 15.2691C160.486 15.2691 161.167 15.5336 161.673 16.0626C162.18 16.5804 162.433 17.2277 162.433 18.0044C162.433 18.7924 162.18 19.4621 161.673 20.0137C161.167 20.554 160.486 20.8242 159.63 20.8242ZM157.216 27.8314C157.07 27.64 156.884 27.4487 156.659 27.2573C156.445 27.0659 156.203 26.8746 155.933 26.6832C155.662 26.4806 155.37 26.2836 155.055 26.0922V25.4844L161.758 23.7621H162.383L162.248 27.2911V39.0936C162.248 39.859 162.203 40.5288 162.112 41.1029C162.034 41.6882 161.865 42.2285 161.606 42.7238C161.347 43.2191 160.959 43.72 160.441 44.2266C159.923 44.7444 159.236 45.3185 158.381 45.9488C157.525 46.5904 156.45 47.3446 155.156 48.2114L154.514 47.4347C155.133 46.7255 155.623 46.1233 155.983 45.628C156.355 45.144 156.625 44.6937 156.794 44.2772C156.963 43.8607 157.075 43.4274 157.131 42.9771C157.188 42.5268 157.216 41.9809 157.216 41.3393V27.8314ZM173.549 20.8242C172.705 20.8242 172.024 20.554 171.506 20.0137C170.999 19.4621 170.746 18.7924 170.746 18.0044C170.746 17.2277 170.999 16.5804 171.506 16.0626C172.024 15.5336 172.705 15.2691 173.549 15.2691C174.404 15.2691 175.085 15.5336 175.592 16.0626C176.11 16.5804 176.369 17.2277 176.369 18.0044C176.369 18.7924 176.11 19.4621 175.592 20.0137C175.085 20.554 174.404 20.8242 173.549 20.8242ZM176.301 23.7621L176.166 27.2911V38.1987L178.125 38.9754V39.617H169.159V38.9754L171.134 38.1987V27.8314C170.988 27.64 170.802 27.4487 170.577 27.2573C170.363 27.0659 170.121 26.8746 169.851 26.6832C169.581 26.4806 169.288 26.2836 168.973 26.0922V25.4844L175.676 23.7621H176.301Z" fill="#C49C3E"/>
<path d="M126.206 58.1877C126.206 56.1727 125.767 54.6419 124.889 53.595C124.011 52.5369 122.813 52.0078 121.293 52.0078C120.651 52.0078 120.038 52.0697 119.452 52.1936C118.867 52.3174 118.31 52.5031 117.781 52.7508C117.263 52.9984 116.773 53.3248 116.312 53.7301L116.227 52.7845C116.892 52.278 117.516 51.8502 118.102 51.5013C118.698 51.1523 119.255 50.8709 119.773 50.657C120.291 50.4432 120.781 50.2912 121.242 50.2011C121.704 50.0998 122.131 50.0492 122.525 50.0492C123.966 50.0492 125.176 50.3531 126.156 50.961C127.146 51.5576 127.9 52.3962 128.418 53.4768C128.936 54.5574 129.195 55.8069 129.195 57.2252C129.195 59.0263 128.824 60.5797 128.081 61.8855C127.338 63.1912 126.336 64.1987 125.075 64.9078C123.826 65.6057 122.43 65.9547 120.888 65.9547C120.314 65.9547 119.745 65.9097 119.182 65.8196C118.619 65.7296 118.045 65.5889 117.46 65.3975C116.886 65.2061 116.295 64.9529 115.687 64.6377H117.359V72.6073L120.195 73.3334V73.9075H112.175V73.3334L114.708 72.6073V53.3417C114.561 53.2066 114.376 53.0772 114.151 52.9534C113.925 52.8183 113.65 52.6776 113.323 52.5312C113.008 52.3849 112.642 52.2217 112.226 52.0416V51.6532L116.734 49.9985H117.004L117.359 52.2611V61.3114C117.359 61.9642 117.528 62.5496 117.865 63.0674C118.214 63.5852 118.698 63.9904 119.317 64.2831C119.936 64.5758 120.657 64.7221 121.479 64.7221C122.48 64.7221 123.33 64.4632 124.028 63.9454C124.737 63.4163 125.278 62.6622 125.649 61.6828C126.021 60.7035 126.206 59.5385 126.206 58.1877ZM142.049 64.8234C142.961 64.8234 143.76 64.587 144.447 64.1143C145.133 63.6415 145.668 62.9211 146.051 61.953C146.434 60.9849 146.625 59.7636 146.625 58.289C146.625 56.7468 146.434 55.4467 146.051 54.3886C145.679 53.3305 145.15 52.5312 144.464 51.9909C143.777 51.4506 142.955 51.1805 141.998 51.1805C141.075 51.1805 140.271 51.4169 139.584 51.8896C138.897 52.3624 138.363 53.0828 137.98 54.0509C137.608 55.0189 137.423 56.2403 137.423 57.7149C137.423 59.2458 137.608 60.5459 137.98 61.6153C138.351 62.6734 138.886 63.4726 139.584 64.0129C140.282 64.5533 141.104 64.8234 142.049 64.8234ZM141.965 65.9547C140.513 65.9547 139.218 65.6226 138.081 64.9585C136.944 64.2944 136.049 63.3713 135.396 62.1894C134.755 61.0074 134.434 59.651 134.434 58.1201C134.434 56.5555 134.772 55.1653 135.447 53.9496C136.123 52.7339 137.034 51.7827 138.182 51.096C139.331 50.3981 140.631 50.0492 142.083 50.0492C143.546 50.0492 144.841 50.3812 145.966 51.0454C147.103 51.7095 147.993 52.6326 148.634 53.8145C149.276 54.9852 149.597 56.3416 149.597 57.8837C149.597 59.4484 149.259 60.8386 148.584 62.0543C147.908 63.27 146.996 64.2268 145.848 64.9247C144.7 65.6114 143.406 65.9547 141.965 65.9547ZM162.63 50.0492C163.755 50.0492 164.729 50.2912 165.551 50.7752C166.372 51.2593 167.025 51.9684 167.509 52.9027C168.005 53.837 168.309 54.9852 168.421 56.3472H157.834L157.851 55.2497L166.716 54.9627L165.534 55.6718C165.444 54.7375 165.269 53.9439 165.01 53.2911C164.751 52.6269 164.403 52.1204 163.964 51.7714C163.525 51.4112 162.973 51.2311 162.309 51.2311C161.487 51.2311 160.767 51.4619 160.148 51.9234C159.54 52.3849 159.067 53.0603 158.729 53.9496C158.392 54.8276 158.223 55.9026 158.223 57.1746C158.223 58.6042 158.465 59.8142 158.949 60.8048C159.444 61.7954 160.136 62.544 161.026 63.0505C161.926 63.5571 162.984 63.8103 164.2 63.8103C164.684 63.8103 165.157 63.7484 165.618 63.6246C166.091 63.4895 166.547 63.2982 166.986 63.0505C167.425 62.7916 167.836 62.4708 168.218 62.0881L168.59 62.4595C167.993 63.2813 167.38 63.951 166.75 64.4688C166.13 64.9754 165.478 65.3525 164.791 65.6001C164.104 65.8365 163.361 65.9547 162.562 65.9547C161.211 65.9547 160.001 65.6339 158.932 64.9923C157.874 64.3506 157.035 63.4501 156.416 62.2907C155.808 61.1313 155.504 59.7805 155.504 58.2383C155.504 56.7412 155.786 55.3735 156.348 54.1353C156.923 52.8971 157.739 51.9065 158.797 51.1636C159.866 50.4206 161.144 50.0492 162.63 50.0492ZM178.977 53.1391V64.3169L181.425 65.0429V65.617H173.81V65.0429L176.326 64.3169V53.3417C176.146 53.1729 175.881 52.9928 175.532 52.8014C175.183 52.61 174.626 52.3568 173.861 52.0416V51.6532L178.352 49.9985H178.622L178.977 53.1391ZM188.382 54.4055V64.3169L190.813 65.0429V65.617H183.299V65.0429L185.731 64.3169V55.2497C185.731 54.6193 185.601 54.0959 185.342 53.6794C185.083 53.2517 184.718 52.9309 184.245 52.717C183.772 52.5031 183.204 52.3962 182.539 52.3962C181.763 52.3962 181.014 52.5312 180.294 52.8014C179.573 53.0716 179.044 53.4036 178.707 53.7976L178.2 53.2235C178.842 52.6157 179.427 52.1091 179.956 51.7039C180.485 51.2987 180.986 50.9778 181.459 50.7415C181.943 50.4938 182.427 50.3193 182.911 50.218C183.395 50.1055 183.902 50.0492 184.431 50.0492C185.376 50.0492 186.136 50.2405 186.71 50.6233C187.295 51.006 187.717 51.5294 187.976 52.1936C188.247 52.8464 188.382 53.5837 188.382 54.4055ZM197.786 55.1146V64.3169L200.336 65.0429V65.617H192.704V65.0429L195.136 64.3169V55.2497C195.136 54.6081 195.006 54.079 194.747 53.6625C194.488 53.246 194.122 52.9309 193.65 52.717C193.177 52.5031 192.608 52.3962 191.944 52.3962C191.168 52.3962 190.419 52.5312 189.699 52.8014C188.978 53.0716 188.449 53.4036 188.111 53.7976L187.605 53.2235C188.247 52.6157 188.832 52.1091 189.361 51.7039C189.89 51.2987 190.391 50.9778 190.864 50.7415C191.348 50.4938 191.832 50.3193 192.316 50.218C192.8 50.1055 193.306 50.0492 193.835 50.0492C195.243 50.0492 196.25 50.4769 196.858 51.3324C197.477 52.1879 197.786 53.4487 197.786 55.1146ZM211.237 50.0492C211.913 50.0492 212.521 50.1167 213.061 50.2518C213.613 50.3869 214.215 50.6176 214.868 50.9441L215.205 55.1146H214.53L212.723 50.8597L213.922 52.3117C213.449 51.884 213.005 51.5744 212.588 51.3831C212.172 51.1917 211.693 51.096 211.153 51.096C210.275 51.096 209.583 51.293 209.076 51.687C208.57 52.081 208.316 52.6382 208.316 53.3586C208.316 53.8877 208.451 54.3323 208.722 54.6925C208.992 55.0527 209.38 55.3792 209.887 55.6718C210.404 55.9645 211.035 56.2684 211.778 56.5836C212.341 56.82 212.853 57.0845 213.314 57.3772C213.787 57.6586 214.187 57.9851 214.513 58.3565C214.851 58.728 215.11 59.1557 215.29 59.6398C215.481 60.1238 215.577 60.6866 215.577 61.3283C215.577 62.2963 215.329 63.1293 214.834 63.8272C214.339 64.5139 213.674 65.0429 212.841 65.4144C212.008 65.7746 211.069 65.9547 210.022 65.9547C209.301 65.9547 208.66 65.8928 208.097 65.769C207.534 65.6564 206.982 65.4763 206.442 65.2287L205.632 60.7879H206.358L208.789 65.3806L207.084 64.1818C207.466 64.3844 207.804 64.542 208.097 64.6546C208.401 64.7671 208.682 64.8459 208.941 64.891C209.211 64.936 209.487 64.9585 209.768 64.9585C210.804 64.9585 211.654 64.7277 212.318 64.2662C212.982 63.7934 213.314 63.0955 213.314 62.1725C213.314 61.711 213.213 61.317 213.01 60.9906C212.819 60.6529 212.549 60.3602 212.2 60.1125C211.851 59.8536 211.446 59.6116 210.984 59.3865C210.523 59.1614 210.027 58.9306 209.498 58.6942C208.8 58.379 208.198 58.0245 207.692 57.6305C207.196 57.2365 206.814 56.7637 206.543 56.2121C206.284 55.6493 206.155 54.9796 206.155 54.2028C206.155 53.3248 206.38 52.5763 206.83 51.9572C207.292 51.3381 207.905 50.8653 208.671 50.5388C209.436 50.2124 210.292 50.0492 211.237 50.0492Z" fill="white"/>
</g>
<g filter="url(#filter1_d_2108_226)">
<g clip-path="url(#clip0_2108_226)">
<rect x="50" y="15.617" width="26" height="59" rx="5" fill="white"/>
<g filter="url(#filter2_d_2108_226)">
<path d="M61.5657 19.9502H67.8449L68.8171 18.6593C68.8171 18.6593 68.8755 18.7071 68.9924 18.8028C69.1199 18.8984 69.2739 19.0259 69.4546 19.1853C69.6458 19.334 69.8424 19.4934 70.0442 19.6634C70.2461 19.8334 70.432 19.9927 70.602 20.1415C70.5595 20.3115 70.4108 20.3965 70.1558 20.3965H61.5657V19.9502ZM60.1632 19.9502V19.7909V19.0896L62.1713 19.9502H61.9004V23.8389C61.9004 24.572 61.8685 25.3582 61.8048 26.1976C61.7516 27.0369 61.6241 27.8922 61.4223 28.7634C61.2204 29.624 60.9017 30.4581 60.4661 31.2656C60.0304 32.073 59.4355 32.8061 58.6811 33.4649L58.5058 33.3533C59.0158 32.4077 59.3823 31.3984 59.6054 30.3253C59.8392 29.2415 59.9879 28.1472 60.0517 27.0422C60.1261 25.9373 60.1632 24.8695 60.1632 23.8389V19.9502ZM63.5419 24.5242H68.8489V24.9704H63.5419V24.5242ZM63.5419 26.7554H68.9127V27.2175H63.5419V26.7554ZM67.9087 22.293H67.7652L68.5621 21.4164L70.2514 22.6914C70.2089 22.7445 70.1398 22.803 70.0442 22.8667C69.9486 22.9198 69.8264 22.9623 69.6777 22.9942V27.4407C69.6777 27.4832 69.5927 27.5416 69.4227 27.616C69.2633 27.6797 69.0668 27.7435 68.833 27.8072C68.6099 27.8603 68.4027 27.8869 68.2115 27.8869H67.9087V22.293ZM65.2153 26.7554H67.0321V31.3293C67.0321 31.733 66.979 32.0943 66.8727 32.413C66.7771 32.7318 66.5699 32.9868 66.2512 33.178C65.9325 33.3799 65.4437 33.5074 64.785 33.5605C64.7744 33.2736 64.7478 33.0186 64.7053 32.7955C64.6734 32.583 64.6044 32.4077 64.4981 32.2696C64.4131 32.1315 64.2803 32.0146 64.0997 31.919C63.9191 31.8127 63.6535 31.733 63.3028 31.6799V31.4568C63.3028 31.4568 63.3719 31.4621 63.51 31.4727C63.6482 31.4834 63.8128 31.494 64.0041 31.5046C64.1953 31.5152 64.3759 31.5259 64.5459 31.5365C64.7159 31.5471 64.8434 31.5524 64.9284 31.5524C65.0453 31.5524 65.1197 31.5312 65.1515 31.4887C65.194 31.4355 65.2153 31.3665 65.2153 31.2815V26.7554ZM67.574 28.6041C68.3177 28.8272 68.9074 29.0981 69.343 29.4169C69.7892 29.7356 70.1027 30.0596 70.2833 30.389C70.4745 30.7184 70.5595 31.0265 70.5383 31.3134C70.5277 31.5896 70.4427 31.818 70.2833 31.9987C70.1239 32.1793 69.922 32.2749 69.6777 32.2855C69.4439 32.3068 69.1889 32.2058 68.9127 31.9827C68.8596 31.6109 68.7533 31.2284 68.594 30.8353C68.4452 30.4315 68.2646 30.049 68.0521 29.6878C67.8396 29.3159 67.6271 28.9866 67.4146 28.6997L67.574 28.6041ZM56.2587 28.4606C56.3755 28.4606 56.4605 28.45 56.5137 28.4288C56.5668 28.3969 56.6358 28.2959 56.7208 28.126C56.7952 28.0197 56.859 27.9135 56.9121 27.8072C56.9758 27.6903 57.0608 27.5203 57.1671 27.2972C57.2733 27.0741 57.4221 26.7447 57.6133 26.3091C57.8152 25.8735 58.0861 25.2785 58.4261 24.5242C58.7767 23.7698 59.223 22.7923 59.7648 21.5918L60.0198 21.6555C59.9029 22.0167 59.7701 22.4311 59.6214 22.8986C59.4833 23.3555 59.3398 23.8283 59.1911 24.317C59.0423 24.8057 58.8989 25.2732 58.7608 25.7195C58.6333 26.1657 58.5217 26.5588 58.4261 26.8988C58.3305 27.2388 58.2614 27.4885 58.2189 27.6478C58.1552 27.8922 58.1021 28.1419 58.0596 28.3969C58.0171 28.6519 57.9958 28.8856 57.9958 29.0981C58.0064 29.3744 58.0596 29.6453 58.1552 29.9109C58.2614 30.1659 58.3624 30.4581 58.458 30.7874C58.5642 31.1062 58.6067 31.5046 58.5855 31.9827C58.5749 32.3758 58.4527 32.6893 58.2189 32.923C57.9958 33.1568 57.6983 33.2736 57.3264 33.2736C57.1458 33.2736 56.9758 33.2099 56.8165 33.0824C56.6677 32.9549 56.5668 32.7424 56.5137 32.4449C56.6093 31.8818 56.6624 31.3559 56.673 30.8671C56.6943 30.3784 56.6783 29.9693 56.6252 29.64C56.5721 29.3106 56.4818 29.1034 56.3543 29.0184C56.248 28.9334 56.1259 28.875 55.9877 28.8431C55.8602 28.8006 55.7115 28.7741 55.5415 28.7634V28.4606C55.5415 28.4606 55.5893 28.4606 55.6849 28.4606C55.7806 28.4606 55.8868 28.4606 56.0037 28.4606C56.1205 28.4606 56.2055 28.4606 56.2587 28.4606ZM56.673 18.7231C57.3743 18.8293 57.9267 18.994 58.3305 19.2171C58.7448 19.4296 59.0317 19.6634 59.1911 19.9184C59.3611 20.1734 59.4355 20.423 59.4142 20.6674C59.4036 20.9118 59.3239 21.1136 59.1751 21.273C59.0264 21.4218 58.8298 21.5068 58.5855 21.528C58.3517 21.5493 58.1021 21.4643 57.8364 21.273C57.7833 20.9861 57.6824 20.694 57.5336 20.3965C57.3955 20.099 57.2361 19.8174 57.0555 19.5518C56.8749 19.2756 56.6996 19.0312 56.5296 18.8187L56.673 18.7231ZM55.5574 22.3089C56.2268 22.4152 56.7527 22.5692 57.1352 22.7711C57.5283 22.973 57.7992 23.2014 57.948 23.4564C58.1074 23.7008 58.1711 23.9398 58.1392 24.1736C58.118 24.3967 58.033 24.5826 57.8842 24.7314C57.7355 24.8801 57.5443 24.9651 57.3105 24.9863C57.0768 24.997 56.8324 24.9067 56.5774 24.7154C56.5349 24.3117 56.3968 23.8973 56.163 23.4723C55.9399 23.0473 55.6956 22.6967 55.4299 22.4205L55.5574 22.3089ZM63.0479 28.3491L65.0878 29.385C65.0453 29.4594 64.9816 29.5231 64.8966 29.5762C64.8222 29.6187 64.6894 29.624 64.4981 29.5922C64.2219 29.9428 63.8872 30.304 63.4941 30.6759C63.1116 31.0371 62.6813 31.3824 62.2032 31.7118C61.7357 32.0305 61.2363 32.3068 60.7051 32.5405L60.5617 32.3811C60.9335 32.0093 61.2788 31.5896 61.5976 31.1221C61.9269 30.6546 62.2138 30.1765 62.4582 29.6878C62.7132 29.199 62.9097 28.7528 63.0479 28.3491ZM62.7132 22.293V21.5918L64.4344 22.293H68.7055V22.7392H64.3547V27.5522C64.3547 27.5947 64.2856 27.6585 64.1475 27.7435C64.02 27.8285 63.85 27.9081 63.6375 27.9825C63.425 28.0463 63.1966 28.0781 62.9522 28.0781H62.7132V22.293ZM65.1197 20.2849L67.319 20.8108C67.2871 20.9065 67.2234 20.9861 67.1277 21.0499C67.0427 21.1136 66.9152 21.1402 66.7453 21.1296C66.554 21.3421 66.3362 21.5811 66.0918 21.8467C65.8475 22.1124 65.5925 22.3567 65.3269 22.5799H64.9125C64.955 22.2717 64.9975 21.8946 65.04 21.4483C65.0825 21.0021 65.109 20.6143 65.1197 20.2849ZM57.7089 37.9024L60.1473 38.8108C60.1048 38.949 59.9189 39.0446 59.5895 39.0977V49.1859C59.5789 49.2496 59.4408 49.3559 59.1751 49.5046C58.9202 49.6534 58.5164 49.7277 57.9639 49.7277H57.7089V37.9024ZM55.7327 49.409C56.2321 49.3559 56.9174 49.2656 57.7886 49.1381C58.6598 48.9999 59.6533 48.8406 60.7689 48.6599C61.8844 48.4687 63.0372 48.2668 64.2272 48.0543L64.275 48.2456C63.5419 48.6174 62.6282 49.0371 61.5338 49.5046C60.4395 49.9721 59.0689 50.514 57.4221 51.1302C57.3371 51.3427 57.199 51.4755 57.0077 51.5286L55.7327 49.409ZM58.6492 43.1138H67.3349L68.4346 41.7114C68.4346 41.7114 68.5036 41.7645 68.6418 41.8708C68.7799 41.977 68.9499 42.1098 69.1518 42.2692C69.3642 42.4286 69.5821 42.5985 69.8052 42.7792C70.0389 42.9598 70.2514 43.1351 70.4427 43.3051C70.4002 43.4751 70.2461 43.5601 69.9805 43.5601H58.6492V43.1138ZM67.1118 36.5796L68.9764 38.4124C68.8808 38.4868 68.7427 38.524 68.5621 38.524C68.3815 38.524 68.1637 38.4762 67.9087 38.3805C67.3031 38.4868 66.6178 38.5877 65.8528 38.6833C65.0878 38.779 64.2856 38.8693 63.4463 38.9543C62.6069 39.0393 61.757 39.1083 60.8964 39.1615C60.0357 39.2146 59.2017 39.2465 58.3942 39.2571L58.3464 39.034C59.1008 38.8958 59.887 38.7312 60.7051 38.5399C61.5232 38.3487 62.3254 38.1415 63.1116 37.9184C63.9085 37.6846 64.6522 37.4562 65.3428 37.2331C66.0334 37.0099 66.6231 36.7921 67.1118 36.5796ZM63.016 38.3168H64.9125C64.8806 39.1986 64.8859 40.0805 64.9284 40.9623C64.9709 41.8336 65.0719 42.6782 65.2312 43.4963C65.3906 44.3144 65.6084 45.0794 65.8847 45.7913C66.1715 46.4925 66.5328 47.1247 66.9684 47.6878C67.404 48.2403 67.9299 48.6865 68.5461 49.0265C68.6843 49.1009 68.8011 49.1327 68.8968 49.1221C68.9924 49.1009 69.0774 49.0265 69.1518 48.899C69.2792 48.7078 69.428 48.4368 69.598 48.0862C69.768 47.725 69.9274 47.3797 70.0761 47.0503L70.2355 47.0822L69.9327 49.5684C70.2089 49.9296 70.3789 50.2324 70.4427 50.4768C70.517 50.7211 70.4692 50.9443 70.2992 51.1461C70.108 51.3799 69.8477 51.5021 69.5183 51.5127C69.1996 51.5339 68.8702 51.4808 68.5302 51.3533C68.1902 51.2258 67.8715 51.0718 67.574 50.8911C66.6178 50.2749 65.8368 49.5259 65.2312 48.644C64.6362 47.7515 64.1794 46.7581 63.8606 45.6638C63.5419 44.5694 63.3188 43.4007 63.1913 42.1576C63.0744 40.9145 63.016 39.6343 63.016 38.3168ZM55.4937 55.9184H61.6454L62.5538 54.755C62.5538 54.755 62.6494 54.8293 62.8407 54.9781C63.0319 55.1268 63.255 55.3074 63.51 55.5199C63.7756 55.7218 64.0094 55.9237 64.2113 56.1255C64.1688 56.2955 64.02 56.3805 63.765 56.3805H55.6212L55.4937 55.9184ZM55.4459 62.1976H61.757L62.6813 61.0182C62.6813 61.0182 62.7769 61.0926 62.9682 61.2413C63.1594 61.3901 63.3825 61.5707 63.6375 61.7832C63.8925 61.9957 64.1209 62.2029 64.3228 62.4047C64.2909 62.5747 64.1475 62.6597 63.8925 62.6597H55.5734L55.4459 62.1976ZM61.2629 55.9184H62.9044V59.8708C62.9044 60.232 62.8619 60.5454 62.7769 60.811C62.6919 61.0767 62.5166 61.2892 62.251 61.4485C61.9854 61.6079 61.5763 61.7141 61.0238 61.7673C61.0132 61.5335 60.9973 61.3317 60.976 61.1617C60.9548 60.981 60.9123 60.8323 60.8485 60.7154C60.7848 60.6198 60.6892 60.5348 60.5617 60.4604C60.4448 60.3754 60.2589 60.3117 60.0039 60.2692V60.0461C60.0039 60.0461 60.0729 60.0514 60.2111 60.062C60.3492 60.0726 60.4979 60.0832 60.6573 60.0939C60.8167 60.1045 60.9335 60.1098 61.0079 60.1098C61.1142 60.1098 61.1832 60.0886 61.2151 60.0461C61.247 59.9929 61.2629 59.9239 61.2629 59.8389V55.9184ZM61.2948 62.1976H62.9841V67.393C62.9841 67.7543 62.931 68.073 62.8247 68.3493C62.7291 68.6255 62.5272 68.8486 62.2191 69.0186C61.911 69.1886 61.4435 69.3002 60.8167 69.3533C60.806 69.1089 60.7795 68.8964 60.737 68.7158C60.6945 68.5352 60.6201 68.3865 60.5139 68.2696C60.4076 68.1527 60.2589 68.0518 60.0676 67.9668C59.887 67.8712 59.6108 67.7968 59.2389 67.7437V67.5365C59.2389 67.5365 59.3133 67.5418 59.462 67.5524C59.6108 67.563 59.7861 67.5737 59.9879 67.5843C60.2004 67.5949 60.4023 67.6055 60.5935 67.6162C60.7848 67.6268 60.9176 67.6321 60.992 67.6321C61.1088 67.6321 61.1885 67.6109 61.231 67.5684C61.2735 67.5152 61.2948 67.4462 61.2948 67.3612V62.1976ZM57.1511 57.4483H59.5258V57.8946H57.1511V57.4483ZM57.1511 59.8229H59.5258V60.2692H57.1511V59.8229ZM56.3384 57.4483V56.763L58.0436 57.4483H57.8524V60.827C57.8524 60.8907 57.7408 60.981 57.5177 61.0979C57.2946 61.2148 56.9865 61.2732 56.5933 61.2732H56.3384V57.4483ZM58.8245 57.4483H58.697L59.3823 56.7471L60.8007 57.7989C60.7264 57.9158 60.5723 57.9955 60.3386 58.038V60.5879C60.3386 60.6198 60.2642 60.6676 60.1154 60.7314C59.9773 60.7951 59.8073 60.8535 59.6054 60.9067C59.4142 60.9598 59.2389 60.9863 59.0795 60.9863H58.8245V57.4483ZM57.183 63.7275H59.5576V64.1738H57.183V63.7275ZM57.183 66.134H59.5576V66.5803H57.183V66.134ZM56.3065 63.7275V63.0422L58.0436 63.7275H57.8364V67.3293C57.8364 67.393 57.7196 67.4887 57.4858 67.6162C57.2627 67.733 56.9599 67.7915 56.5774 67.7915H56.3065V63.7275ZM58.8405 63.7275H58.713L59.3983 63.0104L60.8485 64.0781C60.7635 64.1844 60.6042 64.2641 60.3704 64.3172V66.899C60.3704 66.9415 60.2961 66.9946 60.1473 67.0584C60.0092 67.1115 59.8392 67.1646 59.6373 67.2177C59.4461 67.2709 59.2708 67.2974 59.1114 67.2974H58.8405V63.7275ZM64.8328 57.9105H69.3749V58.3567H64.6734L64.8328 57.9105ZM68.4824 57.9105H68.2911L69.1677 57.034L70.6976 58.4842C70.6339 58.5586 70.5542 58.6064 70.4586 58.6277C70.363 58.6489 70.2355 58.6702 70.0761 58.6914C69.9061 58.9464 69.6936 59.2386 69.4386 59.568C69.1836 59.8973 68.9233 60.2214 68.6577 60.5401C68.3921 60.8482 68.1371 61.1245 67.8927 61.3688L67.7015 61.2732C67.8077 60.9545 67.9087 60.5932 68.0043 60.1895C68.1105 59.7751 68.2062 59.3661 68.2911 58.9623C68.3761 58.548 68.4399 58.1974 68.4824 57.9105ZM65.3109 57.9105H67.0162C66.9949 59.1005 66.9524 60.2426 66.8887 61.337C66.8249 62.4313 66.6656 63.4672 66.4106 64.4447C66.1556 65.4222 65.7465 66.3359 65.1834 67.1859C64.6309 68.0358 63.8447 68.8114 62.8247 69.5127L62.6176 69.2736C63.3188 68.498 63.8553 67.6746 64.2272 66.8034C64.5991 65.9322 64.8594 65.0184 65.0081 64.0622C65.1675 63.106 65.2578 62.1126 65.279 61.082C65.3003 60.0514 65.3109 58.9942 65.3109 57.9105ZM64.8806 54.5956L67.2552 55.2649C67.2127 55.3712 67.1437 55.4562 67.0481 55.5199C66.9524 55.5731 66.8143 55.5996 66.6337 55.5996C66.2725 56.7471 65.8156 57.7671 65.2631 58.6595C64.7106 59.552 64.0625 60.3011 63.3188 60.9067L63.1116 60.7792C63.3878 60.2586 63.6428 59.6636 63.8766 58.9942C64.1103 58.3249 64.3122 57.6183 64.4822 56.8746C64.6628 56.1202 64.7956 55.3606 64.8806 54.5956ZM67.0162 57.9105C67.0906 59.483 67.2393 60.8748 67.4624 62.086C67.6962 63.2972 68.068 64.3438 68.578 65.2256C69.088 66.1075 69.7839 66.8353 70.6658 67.409L70.6339 67.6002C70.2195 67.6959 69.8795 67.903 69.6139 68.2218C69.3589 68.5511 69.1889 68.9868 69.1039 69.5286C68.6365 69.0186 68.254 68.3705 67.9565 67.5843C67.659 66.7981 67.4252 65.9056 67.2552 64.9069C67.0959 63.8975 66.979 62.8032 66.9046 61.6238C66.8303 60.4445 66.7824 59.212 66.7612 57.9264L67.0162 57.9105Z" fill="#737373"/>
</g>
</g>
</g>
<defs>
<filter id="filter0_d_2108_226" x="81.3083" y="15.2691" width="138.268" height="66.6384" filterUnits="userSpaceOnUse" color-interpolation-filters="sRGB">
<feFlood flood-opacity="0" result="BackgroundImageFix"/>
<feColorMatrix in="SourceAlpha" type="matrix" values="0 0 0 0 0 0 0 0 0 0 0 0 0 0 0 0 0 0 127 0" result="hardAlpha"/>
<feOffset dy="4"/>
<feGaussianBlur stdDeviation="2"/>
<feComposite in2="hardAlpha" operator="out"/>
<feColorMatrix type="matrix" values="0 0 0 0 0 0 0 0 0 0 0 0 0 0 0 0 0 0 0.25 0"/>
<feBlend mode="normal" in2="BackgroundImageFix" result="effect1_dropShadow_2108_226"/>
<feBlend mode="normal" in="SourceGraphic" in2="effect1_dropShadow_2108_226" result="shape"/>
</filter>
<filter id="filter1_d_2108_226" x="46" y="15.617" width="34" height="67" filterUnits="userSpaceOnUse" color-interpolation-filters="sRGB">
<feFlood flood-opacity="0" result="BackgroundImageFix"/>
<feColorMatrix in="SourceAlpha" type="matrix" values="0 0 0 0 0 0 0 0 0 0 0 0 0 0 0 0 0 0 127 0" result="hardAlpha"/>
<feOffset dy="4"/>
<feGaussianBlur stdDeviation="2"/>
<feComposite in2="hardAlpha" operator="out"/>
<feColorMatrix type="matrix" values="0 0 0 0 0 0 0 0 0 0 0 0 0 0 0 0 0 0 0.25 0"/>
<feBlend mode="normal" in2="BackgroundImageFix" result="effect1_dropShadow_2108_226"/>
<feBlend mode="normal" in="SourceGraphic" in2="effect1_dropShadow_2108_226" result="shape"/>
</filter>
<filter id="filter2_d_2108_226" x="51.4299" y="18.6593" width="23.2677" height="58.8693" filterUnits="userSpaceOnUse" color-interpolation-filters="sRGB">
<feFlood flood-opacity="0" result="BackgroundImageFix"/>
<feColorMatrix in="SourceAlpha" type="matrix" values="0 0 0 0 0 0 0 0 0 0 0 0 0 0 0 0 0 0 127 0" result="hardAlpha"/>
<feOffset dy="4"/>
<feGaussianBlur stdDeviation="2"/>
<feComposite in2="hardAlpha" operator="out"/>
<feColorMatrix type="matrix" values="0 0 0 0 0 0 0 0 0 0 0 0 0 0 0 0 0 0 0.25 0"/>
<feBlend mode="normal" in2="BackgroundImageFix" result="effect1_dropShadow_2108_226"/>
<feBlend mode="normal" in="SourceGraphic" in2="effect1_dropShadow_2108_226" result="shape"/>
</filter>
<clipPath id="clip0_2108_226">
<rect x="50" y="15.617" width="26" height="59" rx="5" fill="white"/>
</clipPath>
</defs>
</svg>
